<svg width="185" height="80" xmlns="http://www.w3.org/2000/svg" style="vector-effect: non-scaling-stroke;" stroke="null">

 <g stroke="null">
  <title stroke="null">Layer 1</title>

  <g stroke="null" id="svg_120">
   <text stroke="#000" font-style="italic" font-weight="bold" transform="matrix(0.380918 0 0 0.7607 154.69 86.4309)" xml:space="preserve" text-anchor="start" font-family="monospace" font-size="43" id="svg_50" y="-27.47998" x="-327.67205" stroke-width="0" fill="#000000">Ranting Travelers</text>
   <g stroke="null">
    <path stroke="null" fill-rule="evenodd" d="m21.60024,4.60033l0.08694,0.01599l0.18517,0.045l0.24607,0.03198l0.23477,0.045l0.51817,0.22324l0.46955,0.32685l0.29568,0.34284l0.02505,0.13382l0.01228,0.10481l0.04961,0.07402l0.03733,0.07461l0.02505,0.07461l0,0.05862l0.01228,0.03198l0.02407,0.07461l0.02505,0.19362l0.03733,0.28304l-0.01228,0.74432l-0.07367,0.80294l-0.12377,0.69932l-0.07367,0.22324l-0.12377,0.35765l-0.04862,0.16343l-0.02505,0.10481l-0.06189,0.10303l-0.08694,0.14922l-0.09823,0.23804l-0.23477,0.38667l-0.96266,1.20559l-0.20973,0.17824l-0.07367,0.01599l-0.01228,0.05981l-0.02505,0.04382l-0.28438,0.23804l-0.32073,0.22324l-0.20973,0.11961l-0.30844,0.16343l-0.20973,0.08941l-0.35806,0.10303l-0.30893,0l-0.24607,-0.08882l-0.08694,-0.08941l-0.08694,-0.07461l-0.20924,-0.07402l-0.24705,0l-0.22249,0.05862l-0.08694,0.07461l-0.08595,0.05981l-0.17289,0.05981l-0.38261,-0.08941l-0.43222,-0.23804l-0.38261,-0.22324l-0.65471,-0.55128l-0.08595,-0.16343l-0.02505,-0.09l-0.09921,-0.13382l-0.11051,-0.19362l-0.18517,-0.6099l-0.09823,-0.75912l0.0113,-0.74432l0.04961,-0.31265l0.07416,-0.29666l0.24705,-0.62589l0.333,-0.63952l0.39489,-0.5797l0.20973,-0.23804l0.39489,-0.43227l0.62868,-0.6099l0.51915,-0.34166l0.50589,-0.14922l0.50589,0l0.51915,0.09l0.23379,0.05981l0.27211,0.08882l0.28438,0.01599l0.14784,-0.08882l0.09823,-0.05981l0.18517,-0.22324l0.06189,-0.10481l0.06189,-0.13382l0.12378,-0.09595zm-3.06092,16.68217l0.01228,0.31265l0.03733,1.02617l0.08595,0.83373l0.07416,0.55069l0.03733,0.20843l0.02505,0.19362l0.03635,0.5649l0.03733,0.61049l0.03733,0.37186l0.13556,1.5183l0.03733,1.07118l0.01228,0.50627l0.02505,0.62471l0.07367,2.17315l0.02456,1.45784l0,0.37245l-0.01228,0.95276l-0.01228,0.53528l-0.03635,0.61049l-0.03733,0.05981l-0.09921,-0.01599l-0.14784,-0.16402l-0.24705,-0.29666l-0.3944,-0.28304l-0.20973,-0.045l-0.28438,-0.05981l-0.54273,-0.32685l-0.37033,-0.32805l-0.46955,-0.44647l-0.53045,-0.56609l-0.22249,-0.23804l-0.333,-0.35647l-0.71561,-0.78931l-2.20968,-2.72266l-0.51817,-0.72951l-0.12377,-0.19362l-0.14784,-0.17824l-0.0609,-0.10481l-0.04961,-0.17824l0.08595,-0.20843l0.23477,-0.23804l0.18517,-0.14863l0.41993,-0.37245l0.87623,-0.80294l0.93859,-0.84913l0.65373,-0.55009l0.41993,-0.35765l0.13556,-0.16343l0.03733,-0.07461l0.04961,-0.01599l0.22249,-0.11843l0.85117,-0.75912l0.41993,-0.37186l0.45677,-0.34284l0.38261,-0.32685l0.20973,-0.26823l0.13556,-0.22324l0.18517,-0.17824l0.18319,-0.16169zm6.57901,15.72869l0.08595,0.045l0.04961,0.13442l0.01228,0.08882l0.01228,0.16402l0.04961,0.04382l0.0609,0.03198l0.01228,0.07461l0.04961,0.13382l0.17289,0.20843l0.22249,0.22383l-0.17289,0.16343l-0.14784,0.13382l-0.09921,0.03198l-0.11051,0.045l-0.22249,0.13382l-0.23477,0.11961l-0.24705,0.045l-0.11051,-0.05981l-0.02505,-0.05981l-0.02505,-0.13382l0.06189,-0.44647l0.14784,-0.50627l0.18517,-0.43167l0.09921,-0.11961l0.06139,-0.045l0.11198,-0.01895zm-9.61541,0.20902l0.45628,0.22324l0.14882,0.16343l0.08595,0.10303l0.07416,0.03198l0.14784,0.07461l0.58006,0.46128l0.12328,0.13382l0.08694,0.09l0.19744,0.11961l0.08595,0.04382l0.13654,0.13442l0.01228,0.045l-0.01228,0.10362l-0.19744,0.38667l-0.17289,0.23804l-0.17289,0.22324l-0.25933,0.13442l-0.17289,-0.01599l-0.08694,-0.045l-0.24607,-0.17824l-0.71659,-0.80412l-0.11051,-0.20843l-0.03733,-0.08882l-0.09823,-0.16402l-0.11149,-0.14863l0,-0.03198l0.01228,-0.045l-0.07416,-0.14863l-0.06139,-0.11961l-0.04961,-0.25167l0.04961,-0.22324l0.13556,-0.17942l0.09921,-0.05862l0.14784,0.00118zm-5.48083,35.84734l0.23477,0.01599l0.35806,0.13382l0.12377,0.10481l-0.01228,0.045l-0.03733,0.17824l0.04961,0.74432l0.0609,0.22324l0.03733,0.05981l0.08694,0.05862l0.08595,0l0.03733,0.05981l0,0.19362l-0.06189,0.07461l-0.18517,0.05981l-0.85117,0.01599l-0.32171,-0.045l-0.35806,-0.045l-0.6051,-0.01599l-0.58006,-0.01599l-0.2834,-0.03198l-0.27211,-0.05981l-0.48084,-0.07402l-0.29666,-0.05981l-0.24607,-0.10481l-0.01228,-0.07402l0.02456,-0.045l0.12328,-0.11961l0.08595,-0.02902l0.22249,-0.10481l0.28438,-0.14863l0.34528,-0.17942l0.45677,-0.19362l0.39489,-0.17824l0.16011,-0.10362l0.18517,-0.07461l0.92583,-0.22324l0.32073,-0.04145zm12.0103,-70.7139l-0.81483,0.11843l-0.39489,0.14922l-0.24705,0.08882l-0.58006,0.11961l-0.38261,0.01599l-0.53045,0.045l-0.8885,0.28186l-0.64194,0.34284l-0.32073,0.17824l-0.16011,0.045l-0.17289,0.05981l-0.67926,0.5951l-0.80255,0.86274l-0.62966,0.80412l-0.12328,0.25344l-0.08595,0.20843l-0.06189,0.05981l-0.04961,0.04382l-0.20973,0.38785l-0.34528,0.89294l-0.12328,0.47607l-0.03733,0.13382l-0.08694,0.29784l-0.07367,0.31265l-0.12377,0.93735l-0.01228,0.35647l0.02505,0.43167l0.09921,0.95276l0.04961,0.16343l0.03635,0.08941l-0.02505,0.05981l-0.0113,0.07402l0.03635,0.08941l0.07416,0.14863l0.08595,0.29784l0.07416,0.23804l0.24705,0.49148l0.14784,0.20843l0.07416,0.10481l0.01228,0.07402l0.14784,0.25344l0.96266,1.01197l0.23477,0.16343l0.14784,0.05981l0.38261,0.22324l0.41993,0.23804l0.23379,0.05981l0.12377,0.01599l0.08595,0.05862l0.12377,0.07461l0.25884,0.045l0.28438,0.045l0.19744,0.10362l0.04961,0.13442l0,0.08882l0.02407,0.40146l0.08694,0.62589l0.03733,0.26823l0.04961,0.40146l0.03635,0.46128l0.04961,0.50627l0.02505,0.20843l0,0.25344l-0.07416,0.10362l-0.16011,-0.01599l-0.13556,-0.03198l-0.25933,-0.04382l-0.25884,0.04382l-0.17289,0.07461l-0.76621,0.55069l-1.4686,1.20559l-0.66601,0.62471l-0.96266,0.90775l-1.74069,1.50344l-0.24705,0.22324l-0.08694,0.11843l-0.03635,0.045l-0.08694,0.01599l-0.13556,0.07402l-0.22249,0.20902l-0.24705,0.25167l-0.61739,0.37245l-0.46857,0.17824l-0.4445,0.20843l-0.29568,0.20843l-0.23477,0.26764l-0.48182,0.89294l-0.12328,0.35765l-0.03733,0.26823l0.03733,0.55009l0.07416,0.16402l0.06139,0.11843l0.02505,0.13382l0.03733,0.17942l0.333,0.46128l0.28438,0.28186l0.27111,0.28304l0.07416,0.14922l0.07416,0.10303l0.22151,0.13442l0.23477,0.13382l0.5555,0.50627l0.48182,0.53589l0.41993,0.46128l0.25884,0.25167l0.13654,0.14922l0.04862,0.08882l0.12377,0.20902l0.87623,1.11559l0.34528,0.38667l0.22249,0.22324l0.22249,0.26823l0.23477,0.26823l-0.20973,0.23804l-0.18517,0.20843l-0.333,0.5649l-0.04961,0.14922l-0.03733,0.16343l-0.12328,0.38667l-0.06189,0.20843l-0.07416,0.46128l0.01228,0.44706l0.07416,0.44647l0.07416,0.20843l0.11051,0.29666l0.02505,0.14922l0.03733,0.16343l0.24607,0.52108l0.07416,0.07461l0.04961,0.01599l0.01228,0.08941l0.07367,0.17824l0.6051,0.87874l0.30893,0.38667l0.25884,0.26823l0.32171,0.31206l0.2834,0.26823l0.08694,0.11961l0.02407,0.05862l0.14833,0.03198l0.04862,0.045l0.08694,0.08941l0.25933,0.16343l0.13556,0.07461l0.2834,0.07402l0.51915,0.01599l0.43222,-0.08882l0.333,-0.11961l0.8389,-0.53528l0.28438,-0.28304l0.25933,-0.29784l0.11051,-0.07461l0.03733,0.25285l-0.02505,0.84913l-0.03733,1.2346l0,2.8127l0.03733,0.44647l-0.06189,0.16402l-0.2834,0.37186l-0.29666,0.40146l-0.12328,0.25285l-0.18517,0.81892l-0.17289,0.62471l-0.12377,0.50627l-0.03635,0.25285l-0.03733,0.22324l-0.11149,0.40146l-0.11051,0.40146l-0.04961,0.29784l-0.16011,0.98236l-0.22249,1.17539l-0.06139,0.26705l0.01228,0.08941l-0.01228,0.16343l-0.08694,0.44647l-0.11051,0.50627l-0.08694,0.43167l-0.07416,0.37245l-0.09823,0.37186l-0.09921,0.34284l-0.04862,0.26823l-0.06189,0.26705l-0.11051,0.32805l-0.13654,0.35647l-0.11051,0.40265l-0.09921,0.34166l-0.09823,0.17824l-0.08694,0.13442l-0.01228,0.14863l-0.02407,0.17824l-0.08694,0.22383l-0.19744,0.50509l-0.41993,1.2204l-0.41993,1.19079l-0.17289,0.46128l-0.20973,0.56609l-0.17289,0.5797l-0.04862,0.14803l-0.17338,0.43227l-0.53045,1.47264l-0.91306,2.8274l-0.25933,0.80412l-0.22249,0.5797l-0.11051,0.14803l-0.03733,0.01599l-0.13556,-0.03198l-0.22249,-0.10362l-0.2834,-0.07461l-1.02455,-0.01599l-0.46955,0.07461l-0.37033,0.08941l-0.87623,0.28186l-0.88899,0.35765l-0.74066,0.37186l-0.24607,0.16402l-0.20973,0.13382l-0.40766,0.20843l-0.4445,0.22324l-0.80255,0.49088l-0.6164,0.46128l-0.35855,0.35647l-0.03635,0.11961l-0.04961,0.14863l-0.17289,0.32805l-0.11149,0.20784l-0.09823,0.37186l0,0.46187l0.07367,0.37245l0.13654,0.34166l0.19744,0.32805l0.14784,0.16343l0.24705,0.23804l0.444,0.31265l0.20973,0.08882l0.09921,-0.03198l0.11051,0.08882l0.14784,0.11961l0.20973,0.05862l0.25933,0.05981l0.29568,0.07461l0.38261,0.08882l1.02455,0.11961l1.09823,0.01599l0.97494,-0.08941l0.35806,-0.08882l0.35855,-0.08941l0.22151,-0.03198l0.25933,-0.03198l0.41993,-0.10362l0.39489,-0.10481l0.17289,-0.045l0.14784,-0.08882l0.61739,-0.50627l0.2834,-0.28304l0.30893,-0.32685l-0.06189,-0.49088l-0.03733,-0.29784l0.06189,-0.29784l0.14784,-0.19362l0.12377,-0.16343l0.2834,-0.61049l0.14784,-0.38667l0.24705,-0.69932l0.11149,-0.26823l0.09823,-0.23804l0.19744,-0.63952l0.23477,-0.68451l0.14784,-0.43167l0.13556,-0.37245l0.13654,-0.47607l0.13556,-0.47548l0.13556,-0.43227l0.22249,-0.63952l0.38261,-1.19079l0.39489,-1.19079l0.23477,-0.68451l0.32073,-0.84795l0.37033,-1.05638l0.16011,-0.43227l0.32171,-0.89294l0.5555,-1.54725l0.69106,-2.17315l0.16011,-0.71411l0.11149,-0.44647l0.17289,-0.75794l0.16011,-0.68451l0.04961,-0.22324l0,-0.10481l0.03733,-0.16343l0.07367,-0.46128l0.20973,-1.2654l0.14784,-0.72951l0.07416,-0.13382l0.04961,-0.03198l0.06139,-0.01599l0.11149,0.16343l0.07367,0.17942l0.11149,0.29666l0.02505,0.16402l0.03635,0.14803l0.14882,0.32805l0.13556,0.31206l0.02505,0.11961l0.02505,0.13382l0.20973,0.53589l0.06139,0.08882l0.03733,0.03198l0.01228,0.10481l0.01228,0.08882l0.08694,0l0.02407,0.11961l0.02505,0.16343l0.08694,0.14922l0.11051,0.20843l0.17289,0.38667l0.29666,0.71411l0.53045,1.16058l0.18517,0.32685l0.16011,0.28304l0.04961,0.11961l0.03733,0.11843l0.24705,0.43167l0.07367,0.08941l0.03733,0.05981l0.01228,0.10303l0.01228,0.11961l0.22249,0.53528l0.25884,0.58088l0.48182,1.07118l0.20973,0.6407l0.01228,0.05862l0.06139,0.01599l0.04961,0.03198l-0.02505,0.05981l-0.01228,0.05981l0.03733,0.05862l0.07416,0.13442l0.11051,0.35647l0.13556,0.49088l0.20973,0.65431l0.22249,0.74432l0.39489,1.44363l0.03733,0.29784l0.02505,0.16343l0.07367,0.20843l0.13654,0.40146l0.06139,0.37245l0.03733,0.16343l0.13654,0.44647l0.16011,0.52108l0.08595,0.43167l0.07416,0.31265l0.06189,0.08882l0.04862,0.045l-0.01228,0.31265l-0.06139,0.16343l-0.04961,0.25285l-0.02505,0.44647l0,0.32805l0.08694,0.32685l0.13556,0.17824l0.20973,0.22324l0.13556,0.05981l0.11051,0.03198l0.09921,0.11843l0.13556,0.20902l0.23477,0.32685l0.23477,0.31265l0.17289,0.13382l0.14784,0.07461l0.13556,0.11843l0.07416,0.05981l0.22249,-0.07461l0.24705,-0.17824l0.32073,-0.25285l0.32073,-0.35647l0.09921,-0.19362l0.01228,-0.07461l0.01228,-0.10481l0.12328,-0.14863l0.46955,-0.14803l0.60412,-0.05981l0.74115,-0.03198l0.333,-0.01599l0.40766,0.03198l0.97494,0.20843l0.37033,0.13442l0.38261,0.19362l0.69106,0.50627l0.29666,0.25344l0.01228,0.05862l-0.06189,0.10481l-0.46955,0.34166l-1.04861,0.6407l-0.58006,0.26705l-0.95039,0.32805l-0.4941,0.11843l-0.12328,0.01599l-0.02505,0.07461l-0.02505,0.05981l-0.04961,-0.03198l-0.08595,-0.01599l-0.13556,0.05981l-0.28438,0.08882l-0.56777,0.11961l-0.58006,0.10362l-0.2834,0.05981l-0.25933,0.07461l-0.46955,0.08882l-0.90078,0.19421l-0.9381,0.32685l-0.38261,0.20843l-0.19744,0.23804l-0.02505,0.17942l0.04961,0.16343l0.0609,0.11843l0.27211,0.31265l0.35806,0.32805l0.37033,0.23804l0.14784,0.05862l0.41993,0.07461l1.43226,0l0.58006,-0.05981l0.48084,-0.07402l0.28438,-0.045l0.24705,-0.03198l0.7279,-0.20843l0.71561,-0.23804l0.81483,-0.26823l0.32073,-0.08941l0.50589,-0.22324l1.93809,-1.10078l0.40717,-0.31265l0.07416,-0.05862l0.09823,-0.01599l0.12377,-0.03198l0.12328,-0.11961l0.16011,-0.16343l0.19744,-0.14803l0.22249,-0.19362l0.32073,-0.53589l0.16109,-0.68451l-0.02505,-0.75912l-0.09921,-0.38667l-0.08595,-0.29784l-0.16011,-0.43167l-0.35855,-0.55069l-0.48084,-0.52108l-0.17289,-0.17824l-0.54273,-0.40146l-0.62966,-0.40146l-0.56777,-0.28304l-0.19744,-0.05981l-0.17289,-0.045l-0.35806,-0.10362l-0.48182,-0.14922l-1.27106,-0.10303l-1.24705,0l-1.12327,-0.01599l-0.61739,-0.045l-0.11051,-0.05981l0,-0.05862l-0.03733,-0.16402l-0.04961,-0.17824l-0.17289,-0.5797l-0.04961,-0.29784l-0.02407,-0.10481l-0.03733,-0.10362l-0.04961,-0.11961l-0.04961,-0.23804l-0.08595,-0.35647l-0.16011,-0.49088l-0.16109,-0.47607l-0.06139,-0.32685l-0.06189,-0.28304l-0.12328,-0.35765l-0.09921,-0.31206l0.01228,-0.08941l0.01228,-0.01599l-0.06189,-0.07461l-0.06139,-0.11843l-0.01228,-0.17824l-0.02505,-0.19421l-0.04961,-0.17824l-0.07367,-0.16343l-0.03733,-0.13382l-0.22249,-0.80412l-0.37033,-1.2204l-0.08694,-0.23804l-0.04862,-0.10362l-0.04961,-0.11961l-0.11149,-0.29666l-0.25884,-0.71411l-0.98772,-2.23288l-0.333,-0.65431l-0.09921,-0.20843l-0.02505,-0.14863l-0.01228,-0.10481l-0.04862,-0.03198l-0.16109,-0.25285l-0.76522,-1.60713l-0.12328,-0.35647l-0.02505,-0.07461l-0.07367,-0.11843l-0.20973,-0.40265l-0.69155,-1.69596l-0.13556,-0.46128l-0.02505,-0.08941l-0.03733,-0.11843l-0.06139,-0.20902l-0.09921,-0.40146l-0.12328,-0.49088l-0.37033,-0.90775l-0.16109,-0.23804l-0.08595,-0.10362l-0.07416,-0.31265l-0.01228,-0.28304l-0.02407,-1.54725l0.03635,-5.2387l0.04961,-1.29442l0.04961,-0.65431l0.03733,-0.93735l0.03635,-0.90775l0.03733,-0.59569l0.01228,-0.96637l0.01228,-2.24773l0,-1.75568l-0.04961,-2.426l-0.06139,-1.11559l-0.02505,-0.6549l-0.03733,-0.68451l-0.03733,-0.63952l-0.02505,-0.49148l-0.03635,-0.46128l-0.03733,-0.53589l-0.06189,-0.74432l-0.11051,-0.93735l-0.04961,-0.13382l-0.03733,-0.13442l0,-0.34166l0.01228,-0.23804l0.08694,-0.16343l0.09823,-0.01599l0.12328,0.01599l0,0.04382l0.09921,0.07461l0.96266,0.32805l0.56777,0.14803l0.46857,0.11961l0.33398,0.10303l0.25884,0.07461l0.22249,0.05981l0.22249,0.07402l0.27211,0.16402l0.25884,0.16343l0.13654,0.03198l0.20973,0.04382l0.70334,0.29784l0.11051,0.07461l0.04961,0.07461l0.20973,0.05862l0.30844,0.07461l0.29666,0.16343l0.23477,0.11961l0.13556,0.045l0.13556,0.04382l0.17289,0.08941l0.18517,0.07461l0.19744,0.05862l0.24705,0.09l0.38261,0.13382l0.43222,0.14922l0.37033,0.08882l0.34528,0.07461l0.34528,0.08941l0.333,0.07402l0.32171,0.05981l0.2834,0.045l0.20973,0.03198l0.14784,0.03198l0.09921,0l0.03733,0.01599l0.03733,0.07402l-0.04961,0.17942l-0.08694,0.14863l-0.09823,0.13382l-0.02456,0.11961l-0.01228,0.07402l-0.03733,0.01599l-0.12328,0.13442l-0.65471,0.87755l-0.24607,0.37186l-0.28438,0.46128l-0.66699,0.99716l-0.62868,0.96755l-0.18517,0.35647l-0.01228,0.07461l-0.04961,0.03198l-0.08694,0.08941l-0.18517,0.29666l-0.25884,0.46128l-0.37033,0.61049l-0.32171,0.53528l-0.09823,0.19421l-0.04961,0.11843l-0.16011,0.22324l-0.18517,0.25285l-0.12328,0.22324l-0.08694,0.16343l-0.2834,0.26823l-0.17338,0.08941l-0.04862,0.03198l-0.04961,-0.01599l0.01228,-0.045l0.02505,-0.05981l-0.03733,-0.01599l-0.09921,-0.05862l-0.19744,-0.19421l-0.14784,-0.14863l-0.24607,-0.08941l-0.20973,0.03198l-0.19744,0.03198l-0.38261,0.16343l-0.40766,0.28304l-0.43222,0.41627l-0.23477,0.26823l-0.37033,0.44647l-0.5555,0.87874l-0.35806,0.89294l-0.17289,0.95276l-0.02505,0.5199l0,0.32805l0.04961,0.5797l0.03635,0.17942l0.13654,0.34166l0.39489,0.59569l0.25884,0.28186l0.11149,0.07461l0.14784,0.08941l0.03733,0.08882l0.01228,0.045l0.06139,-0.01599l0.08694,-0.01599l0.16011,0.10481l0.09921,0.07402l0.23379,0.07461l0.50638,0l0.50589,-0.11843l0.4941,-0.13442l0.87623,-0.40146l0.30844,-0.22324l0.14882,-0.11961l0.03635,0l0.03733,0.01599l0.28438,-0.20843l0.69106,-0.66971l0.41993,-0.47607l0.39489,-0.50627l0.34528,-0.6099l0.12377,-0.35647l0.02407,-0.17942l0,-0.32746l-0.17289,-0.66971l-0.13556,-0.35765l-0.07416,-0.08882l-0.08595,-0.11961l-0.04961,-0.28304l0.06189,-0.05862l0.53045,-0.77393l1.01228,-1.68171l0.50589,-0.83314l0.50589,-0.78931l0.17338,-0.25344l0.08595,-0.16343l0.17289,-0.29784l0.83939,-1.20559l0.38261,-0.50509l0.43222,-0.56609l0.41895,-0.6099l0.29666,-0.44647l0.34528,-0.41746l0.17289,-0.11843l0.06189,-0.01599l0.07367,-0.03198l0.24705,-0.23804l0.41993,-0.5649l0.16011,-0.32805l0.12377,-0.28304l0.11051,-0.13382l0.04961,-0.045l0.01228,-0.22324l-0.04961,-0.25344l-0.11149,-0.56609l-0.22151,-0.65431l-0.12377,-0.14803l-0.17289,-0.16343l-0.16011,-0.17942l-0.12328,-0.13382l-0.06189,-0.045l-0.14784,-0.05981l-0.20973,-0.04382l-0.11149,0.02902l-0.18517,0.05981l-0.46857,0.045l-0.88899,-0.045l-1.45627,-0.25344l-1.59232,-0.43167l-0.7775,-0.29784l-0.5555,-0.23804l-1.58,-0.77334l-0.30844,-0.19362l-0.35806,-0.25344l-1.54278,-0.90775l-0.28438,-0.13442l-0.08595,-0.03198l-0.19744,-0.19362l-0.29666,-0.29784l-0.67828,-0.49029l-0.24705,-0.08941l-0.18517,-0.045l-0.07367,-0.07461l-0.06189,-0.04382l-0.29666,-0.01599l-0.35806,0.07402l-0.25884,0.11961l-0.02505,0.05981l-0.02505,0.05862l-0.08694,0.01599l-0.14784,0.05981l-0.19744,0.22324l-0.11051,0.14863l-0.13654,0.08941l-0.04862,-0.045l-0.07416,-0.28304l-0.09823,-0.69932l-0.09921,-0.72833l-0.04961,-0.35765l-0.03635,-0.28304l-0.03733,-0.46128l-0.01228,-0.38667l0.08595,-0.26823l0.13654,-0.07402l0.09823,-0.01599l0.16011,-0.045l0.08694,-0.045l0.09823,-0.07461l0.14882,-0.05862l0.20973,-0.08941l0.65373,-0.44647l0.74066,-0.59569l0.61739,-0.5649l0.17289,-0.22324l0.27211,-0.37245l0.27111,-0.37186l0.28438,-0.38667l0.27111,-0.46128l0.24705,-0.46128l0.22249,-0.38726l0.14784,-0.28186l0.04961,-0.14922l0.02505,-0.13382l0.09823,-0.22324l0.14882,-0.38785l0.14784,-0.63952l0.08595,-0.44647l0.07416,-0.84795l0,-0.66971l-0.02505,-0.98236l-0.13556,-1.17539l-0.12377,-0.46128l-0.0609,-0.09l-0.07416,-0.08882l-0.02505,-0.11961l-0.02505,-0.14863l-0.08595,-0.11961l-0.07416,-0.10362l-0.02505,-0.11961l-0.02505,-0.08882l-0.18517,-0.28304l-0.46857,-0.50627l-0.29666,-0.20843l-0.444,-0.25285l-0.87672,-0.29784l-0.85941,-0.09684z"/>
   </g>
  </g>
 </g>
</svg>