<?xml version="1.0" encoding="UTF-8"?>
<svg width="700pt" height="700pt" version="1.1" viewBox="0 0 700 700" xmlns="http://www.w3.org/2000/svg">
 <path d="m359.39 42.965 0.69141 0.10547 1.4727 0.29688 1.957 0.21094 1.8672 0.29688 4.1211 1.4727 3.7344 2.1562 2.3516 2.2617 0.19922 0.88281 0.097656 0.69141 0.39453 0.48828 0.29687 0.49219 0.19922 0.49219v0.38672l0.097657 0.21094 0.19141 0.49219 0.19922 1.2773 0.29688 1.8672-0.097657 4.9102-0.58594 5.2969-0.98438 4.6133-0.58594 1.4727-0.98438 2.3594-0.38672 1.0781-0.19922 0.69141-0.49219 0.67969-0.69141 0.98437-0.78125 1.5703-1.8672 2.5508-7.6562 7.9531-1.668 1.1758-0.58594 0.10547-0.097656 0.39453-0.19922 0.28906-2.2617 1.5703-2.5508 1.4727-1.668 0.78906-2.4531 1.0781-1.668 0.58984-2.8477 0.67969h-2.457l-1.957-0.58594-0.69141-0.58984-0.69141-0.49219-1.6641-0.48828h-1.9648l-1.7695 0.38672-0.69141 0.49219-0.68359 0.39453-1.375 0.39453-3.043-0.58984-3.4375-1.5703-3.043-1.4727-5.207-3.6367-0.68359-1.0781-0.19922-0.59375-0.78906-0.88281-0.87891-1.2773-1.4727-4.0234-0.78125-5.0078 0.089843-4.9102 0.39453-2.0625 0.58984-1.957 1.9648-4.1289 2.6484-4.2188 3.1406-3.8242 1.668-1.5703 3.1406-2.8516 5-4.0234 4.1289-2.2539 4.0234-0.98438h4.0234l4.1289 0.59375 1.8594 0.39453 2.1641 0.58594 2.2617 0.10547 1.1758-0.58594 0.78125-0.39453 1.4727-1.4727 0.49219-0.69141 0.49219-0.88281zm-24.344 110.05 0.097656 2.0625 0.29688 6.7695 0.68359 5.5 0.58984 3.6328 0.29687 1.375 0.19922 1.2773 0.28906 3.7266 0.29688 4.0273 0.29688 2.4531 1.0781 10.016 0.29688 7.0664 0.097656 3.3398 0.19922 4.1211 0.58594 14.336 0.19531 9.6172v2.457l-0.097657 6.2852-0.097656 3.5312-0.28906 4.0273-0.29688 0.39453-0.78906-0.10547-1.1758-1.082-1.9648-1.957-3.1367-1.8672-1.668-0.29688-2.2617-0.39453-4.3164-2.1562-2.9453-2.1641-3.7344-2.9453-4.2188-3.7344-1.7695-1.5703-2.6484-2.3516-5.6914-5.207-17.574-17.961-4.1211-4.8125-0.98438-1.2773-1.1758-1.1758-0.48438-0.69141-0.39453-1.1758 0.68359-1.375 1.8672-1.5703 1.4727-0.98047 3.3398-2.457 6.9688-5.2969 7.4648-5.6016 5.1992-3.6289 3.3398-2.3594 1.0781-1.0781 0.29688-0.49219 0.39453-0.10547 1.7695-0.78125 6.7695-5.0078 3.3398-2.4531 3.6328-2.2617 3.043-2.1562 1.668-1.7695 1.0781-1.4727 1.4727-1.1758zm52.324 103.76 0.68359 0.29687 0.39453 0.88672 0.097657 0.58594 0.097656 1.082 0.39453 0.28906 0.48438 0.21094 0.097657 0.49219 0.39453 0.88281 1.375 1.375 1.7695 1.4766-1.375 1.0781-1.1758 0.88281-0.78906 0.21094-0.87891 0.29687-1.7695 0.88281-1.8672 0.78906-1.9648 0.29687-0.87891-0.39453-0.19922-0.39453-0.19922-0.88281 0.49219-2.9453 1.1758-3.3398 1.4727-2.8477 0.78906-0.78906 0.48828-0.29687zm-76.473 1.3789 3.6289 1.4727 1.1836 1.0781 0.68359 0.67969 0.58984 0.21094 1.1758 0.49219 4.6133 3.043 0.98047 0.88281 0.69141 0.59375 1.5703 0.78906 0.68359 0.28906 1.0859 0.88672 0.097656 0.29688-0.097656 0.68359-1.5703 2.5508-1.375 1.5703-1.375 1.4727-2.0625 0.88672-1.375-0.10547-0.69141-0.29688-1.957-1.1758-5.6992-5.3047-0.87891-1.375-0.29688-0.58594-0.78125-1.082-0.88672-0.98047v-0.21094l0.097657-0.29687-0.58984-0.98047-0.48828-0.78906-0.39453-1.6602 0.39453-1.4727 1.0781-1.1836 0.78906-0.38672zm-43.59 236.48 1.8672 0.10547 2.8477 0.88281 0.98438 0.69141-0.097656 0.29688-0.29688 1.1758 0.39453 4.9102 0.48438 1.4727 0.29688 0.39453 0.69141 0.38672h0.68359l0.29688 0.39453v1.2773l-0.49219 0.49219-1.4727 0.39453-6.7695 0.10547-2.5586-0.29688-2.8477-0.29688-4.8125-0.10547-4.6133-0.10547-2.2539-0.21094-2.1641-0.39453-3.8242-0.48828-2.3594-0.39453-1.957-0.69141-0.097656-0.48828 0.19531-0.29688 0.98047-0.78906 0.68359-0.19141 1.7695-0.69141 2.2617-0.98047 2.7461-1.1836 3.6328-1.2773 3.1406-1.1758 1.2734-0.68359 1.4727-0.49219 7.3633-1.4727zm95.52-466.49-6.4805 0.78125-3.1406 0.98438-1.9648 0.58594-4.6133 0.78906-3.043 0.10547-4.2188 0.29688-7.0664 1.8594-5.1055 2.2617-2.5508 1.1758-1.2734 0.29688-1.375 0.39453-5.4023 3.9258-6.3828 5.6914-5.0078 5.3047-0.98047 1.6719-0.68359 1.375-0.49219 0.39453-0.39453 0.28906-1.668 2.5586-2.7461 5.8906-0.98047 3.1406-0.29688 0.88281-0.69141 1.9648-0.58594 2.0625-0.98438 6.1836-0.097656 2.3516 0.19922 2.8477 0.78906 6.2852 0.39453 1.0781 0.28906 0.58984-0.19922 0.39453-0.089843 0.48828 0.28906 0.58984 0.58984 0.98047 0.68359 1.9648 0.58984 1.5703 1.9648 3.2422 1.1758 1.375 0.58984 0.69141 0.097657 0.48828 1.1758 1.6719 7.6562 6.6758 1.8672 1.0781 1.1758 0.39453 3.043 1.4727 3.3398 1.5703 1.8594 0.39453 0.98438 0.10547 0.68359 0.38672 0.98438 0.49219 2.0586 0.29688 2.2617 0.29688 1.5703 0.68359 0.39453 0.88672v0.58594l0.19141 2.6484 0.69141 4.1289 0.29687 1.7695 0.39453 2.6484 0.28906 3.043 0.39453 3.3398 0.19922 1.375v1.6719l-0.58984 0.68359-1.2734-0.10547-1.0781-0.21094-2.0625-0.28906-2.0586 0.28906-1.375 0.49219-6.0938 3.6328-11.68 7.9531-5.2969 4.1211-7.6562 5.9883-13.844 9.918-1.9648 1.4727-0.69141 0.78125-0.28906 0.29688-0.69141 0.10547-1.0781 0.48828-1.7695 1.3789-1.9648 1.6602-4.9102 2.457-3.7266 1.1758-3.5352 1.375-2.3516 1.375-1.8672 1.7656-3.832 5.8906-0.98047 2.3594-0.29688 1.7695 0.29688 3.6289 0.58984 1.082 0.48828 0.78125 0.19922 0.88281 0.29688 1.1836 2.6484 3.043 2.2617 1.8594 2.1562 1.8672 0.58984 0.98438 0.58984 0.67969 1.7617 0.88672 1.8672 0.88281 4.418 3.3398 3.832 3.5352 3.3398 3.043 2.0586 1.6602 1.0859 0.98438 0.38672 0.58594 0.98438 1.3789 6.9688 7.3594 2.7461 2.5508 1.7695 1.4727 1.7695 1.7695 1.8672 1.7695-1.668 1.5703-1.4727 1.375-2.6484 3.7266-0.39453 0.98437-0.29688 1.0781-0.98047 2.5508-0.49219 1.375-0.58984 3.043 0.097657 2.9492 0.58984 2.9453 0.58984 1.375 0.87891 1.957 0.19922 0.98438 0.29688 1.0781 1.957 3.4375 0.58984 0.49219 0.39453 0.10547 0.097657 0.58984 0.58594 1.1758 4.8125 5.7969 2.457 2.5508 2.0586 1.7695 2.5586 2.0586 2.2539 1.7695 0.69141 0.78906 0.19141 0.38672 1.1797 0.21094 0.38672 0.29688 0.69141 0.58984 2.0625 1.0781 1.0781 0.49219 2.2539 0.48828 4.1289 0.10547 3.4375-0.58594 2.6484-0.78906 6.6719-3.5312 2.2617-1.8672 2.0625-1.9648 0.87891-0.49219 0.29688 1.668-0.19922 5.6016-0.29688 8.1445v18.555l0.29688 2.9453-0.49219 1.082-2.2539 2.4531-2.3594 2.6484-0.98047 1.668-1.4727 5.4023-1.375 4.1211-0.98438 3.3398-0.28906 1.668-0.29688 1.4727-0.88672 2.6484-0.87891 2.6484-0.39453 1.9648-1.2734 6.4805-1.7695 7.7539-0.48828 1.7617 0.097656 0.58984-0.097656 1.0781-0.69141 2.9453-0.87891 3.3398-0.69141 2.8477-0.58984 2.457-0.78125 2.4531-0.78906 2.2617-0.38672 1.7695-0.49219 1.7617-0.87891 2.1641-1.0859 2.3516-0.87891 2.6562-0.78906 2.2539-0.78125 1.1758-0.69141 0.88672-0.097656 0.98047-0.19141 1.1758-0.69141 1.4766-1.5703 3.332-3.3398 8.0508-3.3398 7.8555-1.375 3.043-1.668 3.7344-1.375 3.8242-0.38672 0.97656-1.3789 2.8516-4.2188 9.7148-7.2617 18.652-2.0625 5.3047-1.7695 3.8242-0.87891 0.97656-0.29688 0.10547-1.0781-0.21094-1.7695-0.68359-2.2539-0.49219-8.1484-0.10547-3.7344 0.49219-2.9453 0.58984-6.9688 1.8594-7.0703 2.3594-5.8906 2.4531-1.957 1.082-1.668 0.88281-3.2422 1.375-3.5352 1.4727-6.3828 3.2383-4.9023 3.043-2.8516 2.3516-0.28906 0.78906-0.39453 0.98047-1.375 2.1641-0.88672 1.3711-0.78125 2.4531v3.0469l0.58594 2.457 1.0859 2.2539 1.5703 2.1641 1.1758 1.0781 1.9648 1.5703 3.5312 2.0625 1.668 0.58594 0.78906-0.21094 0.87891 0.58594 1.1758 0.78906 1.668 0.38672 2.0625 0.39453 2.3516 0.49219 3.043 0.58594 8.1484 0.78906 8.7344 0.10547 7.7539-0.58984 2.8477-0.58594 2.8516-0.58984 1.7617-0.21094 2.0625-0.21094 3.3398-0.68359 3.1406-0.69141 1.375-0.29688 1.1758-0.58594 4.9102-3.3398 2.2539-1.8672 2.457-2.1562-0.49219-3.2383-0.29688-1.9648 0.49219-1.9648 1.1758-1.2773 0.98438-1.0781 2.2539-4.0273 1.1758-2.5508 1.9648-4.6133 0.88672-1.7695 0.78125-1.5703 1.5703-4.2188 1.8672-4.5156 1.1758-2.8477 1.0781-2.457 1.0859-3.1406 1.0781-3.1367 1.0781-2.8516 1.7695-4.2188 3.043-7.8555 3.1406-7.8555 1.8672-4.5156 2.5508-5.5938 2.9453-6.9688 1.2734-2.8516 2.5586-5.8906 4.418-10.207 5.4961-14.336 1.2734-4.7109 0.88672-2.9453 1.375-5 1.2734-4.5156 0.39453-1.4727v-0.69141l0.29688-1.0781 0.58594-3.043 1.668-8.3477 1.1758-4.8125 0.58984-0.88281 0.39453-0.21094 0.48828-0.10547 0.88672 1.0781 0.58594 1.1836 0.88672 1.957 0.19922 1.082 0.28906 0.97656 1.1836 2.1641 1.0781 2.0586 0.19922 0.78906 0.19922 0.88281 1.668 3.5352 0.48828 0.58594 0.29688 0.21094 0.097656 0.69141 0.097656 0.58594h0.69141l0.19141 0.78906 0.19922 1.0781 0.69141 0.98437 0.87891 1.375 1.375 2.5508 2.3594 4.7109 4.2188 7.6562 1.4727 2.1562 1.2734 1.8672 0.39453 0.78906 0.29688 0.78125 1.9648 2.8477 0.58594 0.58984 0.29688 0.39453 0.097656 0.67969 0.097657 0.78906 1.7695 3.5312 2.0586 3.832 3.832 7.0664 1.668 4.2266 0.097656 0.38672 0.48828 0.10547 0.39453 0.21094-0.19922 0.39453-0.097656 0.39453 0.29687 0.38672 0.58984 0.88672 0.87891 2.3516 1.0781 3.2383 1.668 4.3164 1.7695 4.9102 3.1406 9.5234 0.29688 1.9648 0.19922 1.0781 0.58594 1.375 1.0859 2.6484 0.48828 2.457 0.29688 1.0781 1.0859 2.9453 1.2734 3.4375 0.68359 2.8477 0.58984 2.0625 0.49219 0.58594 0.38672 0.29688-0.097656 2.0625-0.48828 1.0781-0.39453 1.668-0.19922 2.9453v2.1641l0.69141 2.1562 1.0781 1.1758 1.668 1.4727 1.0781 0.39453 0.87891 0.21094 0.78906 0.78125 1.0781 1.3789 1.8672 2.1562 1.8672 2.0625 1.375 0.88281 1.1758 0.49219 1.0781 0.78125 0.58984 0.39453 1.7695-0.49219 1.9648-1.1758 2.5508-1.668 2.5508-2.3516 0.78906-1.2773 0.097657-0.49219 0.097656-0.69141 0.98047-0.98047 3.7344-0.97656 4.8047-0.39453 5.8945-0.21094 2.6484-0.10547 3.2422 0.21094 7.7539 1.375 2.9453 0.88672 3.043 1.2773 5.4961 3.3398 2.3594 1.6719 0.097656 0.38672-0.49219 0.69141-3.7344 2.2539-8.3398 4.2266-4.6133 1.7617-7.5586 2.1641-3.9297 0.78125-0.98047 0.10547-0.19922 0.49219-0.19922 0.39453-0.39453-0.21094-0.68359-0.10547-1.0781 0.39453-2.2617 0.58594-4.5156 0.78906-4.6133 0.68359-2.2539 0.39453-2.0625 0.49219-3.7344 0.58594-7.1641 1.2812-7.4609 2.1562-3.043 1.375-1.5703 1.5703-0.19922 1.1836 0.39453 1.0781 0.48438 0.78125 2.1641 2.0625 2.8477 2.1641 2.9453 1.5703 1.1758 0.38672 3.3398 0.49219h11.391l4.6133-0.39453 3.8242-0.48828 2.2617-0.29688 1.9648-0.21094 5.7891-1.375 5.6914-1.5703 6.4805-1.7695 2.5508-0.58984 4.0234-1.4727 15.414-7.2617 3.2383-2.0625 0.58984-0.38672 0.78125-0.10547 0.98437-0.21094 0.98047-0.78906 1.2734-1.0781 1.5703-0.97656 1.7695-1.2773 2.5508-3.5352 1.2812-4.5156-0.19922-5.0078-0.78906-2.5508-0.68359-1.9648-1.2734-2.8477-2.8516-3.6328-3.8242-3.4375-1.375-1.1758-4.3164-2.6484-5.0078-2.6484-4.5156-1.8672-1.5703-0.39453-1.375-0.29688-2.8477-0.68359-3.832-0.98437-10.109-0.67969h-9.918l-8.9336-0.10547-4.9102-0.29688-0.87891-0.39453v-0.38672l-0.29688-1.082-0.39453-1.1758-1.375-3.8242-0.39453-1.9648-0.19141-0.69141-0.29687-0.68359-0.39453-0.78906-0.39453-1.5703-0.68359-2.3516-1.2734-3.2383-1.2812-3.1406-0.48828-2.1562-0.49219-1.8672-0.98047-2.3594-0.78906-2.0586 0.097656-0.58984 0.097656-0.10547-0.49219-0.49219-0.48828-0.78125-0.097657-1.1758-0.19922-1.2812-0.39453-1.1758-0.58594-1.0781-0.29688-0.88281-1.7695-5.3047-2.9453-8.0508-0.69141-1.5703-0.38672-0.68359-0.39453-0.78906-0.88672-1.957-2.0586-4.7109-7.8555-14.73-2.6484-4.3164-0.78906-1.375-0.19922-0.98047-0.097657-0.69141-0.38672-0.21094-1.2812-1.668-6.0859-10.602-0.98047-2.3516-0.19922-0.49219-0.58594-0.78125-1.668-2.6562-5.5-11.188-1.0781-3.043-0.19922-0.58984-0.29688-0.78125-0.48828-1.3789-0.78906-2.6484-0.98047-3.2383-2.9453-5.9883-1.2812-1.5703-0.68359-0.68359-0.58984-2.0625-0.097656-1.8672-0.19141-10.207 0.28906-34.559 0.39453-8.5391 0.39453-4.3164 0.29688-6.1836 0.28906-5.9883 0.29688-3.9297 0.097656-6.375 0.097657-14.828v-11.582l-0.39453-16.004-0.48828-7.3594-0.19922-4.3203-0.29688-4.5156-0.29687-4.2188-0.19922-3.2422-0.28906-3.043-0.29688-3.5352-0.49219-4.9102-0.87891-6.1836-0.39453-0.88281-0.29688-0.88672v-2.2539l0.097657-1.5703 0.69141-1.0781 0.78125-0.10547 0.98047 0.10547v0.28906l0.78906 0.49219 7.6562 2.1641 4.5156 0.97656 3.7266 0.78906 2.6562 0.67969 2.0586 0.49219 1.7695 0.39453 1.7695 0.48828 2.1641 1.082 2.0586 1.0781 1.0859 0.21094 1.668 0.28906 5.5938 1.9648 0.87891 0.49219 0.39453 0.49219 1.668 0.38672 2.4531 0.49219 2.3594 1.0781 1.8672 0.78906 1.0781 0.29688 1.0781 0.28906 1.375 0.58984 1.4727 0.49219 1.5703 0.38672 1.9648 0.59375 3.043 0.88281 3.4375 0.98438 2.9453 0.58594 2.7461 0.49219 2.7461 0.58984 2.6484 0.48828 2.5586 0.39453 2.2539 0.29688 1.668 0.21094 1.1758 0.21094h0.78906l0.29688 0.10547 0.29688 0.48828-0.39453 1.1836-0.69141 0.98047-0.78125 0.88281-0.19531 0.78906-0.097656 0.48828-0.29688 0.10547-0.98047 0.88672-5.207 5.7891-1.957 2.4531-2.2617 3.043-5.3047 6.5781-5 6.3828-1.4727 2.3516-0.097656 0.49219-0.39453 0.21094-0.69141 0.58984-1.4727 1.957-2.0586 3.043-2.9453 4.0273-2.5586 3.5312-0.78125 1.2812-0.39453 0.78125-1.2734 1.4727-1.4727 1.668-0.98047 1.4727-0.69141 1.0781-2.2539 1.7695-1.3789 0.58984-0.38672 0.21094-0.39453-0.10547 0.097656-0.29688 0.19922-0.39453-0.29688-0.10547-0.78906-0.38672-1.5703-1.2812-1.1758-0.98047-1.957-0.58984-1.668 0.21094-1.5703 0.21094-3.043 1.0781-3.2422 1.8672-3.4375 2.7461-1.8672 1.7695-2.9453 2.9453-4.418 5.7969-2.8477 5.8906-1.375 6.2852-0.19922 3.4297v2.1641l0.39453 3.8242 0.28906 1.1836 1.0859 2.2539 3.1406 3.9297 2.0586 1.8594 0.88672 0.49219 1.1758 0.58984 0.29688 0.58594 0.097656 0.29688 0.48828-0.10547 0.69141-0.10547 1.2734 0.69141 0.78906 0.48828 1.8594 0.49219h4.0273l4.0234-0.78125 3.9297-0.88672 6.9688-2.6484 2.4531-1.4727 1.1836-0.78906h0.28906l0.29688 0.10547 2.2617-1.375 5.4961-4.418 3.3398-3.1406 3.1406-3.3398 2.7461-4.0234 0.98438-2.3516 0.19141-1.1836v-2.1602l-1.375-4.418-1.0781-2.3594-0.58984-0.58594-0.68359-0.78906-0.39453-1.8672 0.49219-0.38672 4.2188-5.1055 8.0508-11.094 4.0234-5.4961 4.0234-5.207 1.3789-1.6719 0.68359-1.0781 1.375-1.9648 6.6758-7.9531 3.043-3.332 3.4375-3.7344 3.332-4.0234 2.3594-2.9453 2.7461-2.7539 1.375-0.78125 0.49219-0.10547 0.58594-0.21094 1.9648-1.5703 3.3398-3.7266 1.2734-2.1641 0.98438-1.8672 0.87891-0.88281 0.39453-0.29688 0.097656-1.4727-0.39453-1.6719-0.88672-3.7344-1.7617-4.3164-0.98438-0.97656-1.375-1.0781-1.2734-1.1836-0.98047-0.88281-0.49219-0.29688-1.1758-0.39453-1.668-0.28906-0.88672 0.19141-1.4727 0.39453-3.7266 0.29688-7.0703-0.29688-11.582-1.6719-12.664-2.8477-6.1836-1.9648-4.418-1.5703-12.566-5.1016-2.4531-1.2773-2.8477-1.6719-12.27-5.9883-2.2617-0.88672-0.68359-0.21094-1.5703-1.2773-2.3594-1.9648-5.3945-3.2344-1.9648-0.58984-1.4727-0.29688-0.58594-0.49219-0.49219-0.28906-2.3594-0.10547-2.8477 0.48828-2.0586 0.78906-0.19922 0.39453-0.19922 0.38672-0.69141 0.10547-1.1758 0.39453-1.5703 1.4727-0.87891 0.98047-1.0859 0.58984-0.38672-0.29688-0.58984-1.8672-0.78125-4.6133-0.78906-4.8047-0.39453-2.3594-0.28906-1.8672-0.29688-3.043-0.097656-2.5508 0.68359-1.7695 1.0859-0.48828 0.78125-0.10547 1.2734-0.29688 0.69141-0.29688 0.78125-0.49219 1.1836-0.38672 1.668-0.58984 5.1992-2.9453 5.8906-3.9297 4.9102-3.7266 1.375-1.4727 2.1641-2.457 2.1562-2.4531 2.2617-2.5508 2.1562-3.043 1.9648-3.043 1.7695-2.5547 1.1758-1.8594 0.39453-0.98438 0.19922-0.88281 0.78125-1.4727 1.1836-2.5586 1.1758-4.2188 0.68359-2.9453 0.58984-5.5938v-4.418l-0.19922-6.4805-1.0781-7.7539-0.98437-3.043-0.48438-0.59375-0.58984-0.58594-0.19922-0.78906-0.19922-0.98047-0.68359-0.78906-0.58984-0.68359-0.19922-0.78906-0.19922-0.58594-1.4727-1.8672-3.7266-3.3398-2.3594-1.375-3.5312-1.668-6.9727-1.9648z" fill-rule="evenodd"/>
</svg>
